<svg version="1" xmlns="http://www.w3.org/2000/svg" width="3200" height="3200" viewBox="0 0 2400.000000 2400.000000"><path d="M0 1200v1200h2400V0H0v1200zm1679.1-998c60.2 6.1 107.1 34 142.4 84.5 68.4 98.2 83 276.1 40 487.2-2.4 12.1-6 28.6-8 36.8-1.9 8.1-3.5 14.9-3.5 15 0 .2 3.9 1.6 8.8 3 58 17.4 112.5 37.1 160.2 58.1 22.6 9.9 73.9 35.8 93 47 106.9 62.5 175.3 133 199.4 205.4 10.5 31.6 12.8 58.7 7.5 89.9-18.3 108.6-135.2 216.2-321.4 295.8-39.6 16.9-100.4 39-133 48.3-4.4 1.3-8.3 2.6-8.7 3-.5.3 1.4 10.2 4.1 22 44.9 195.6 38.9 372.2-16.2 481-12.8 25.2-26 44.2-43.2 61.8-17.8 18.4-32.3 29.2-52 38.8-99.4 48.3-247.4 9.1-409.1-108.3-40.4-29.4-87.4-68.6-124.6-104.1-6.5-6.2-12-11.2-12.4-11.2-.4 0-4.6 3.7-9.3 8.3-45.8 43.8-101.5 88.7-153.2 123.3-88 59-170.1 94.8-245.9 107.3-39.8 6.5-81.6 5.3-114-3.5-76-20.6-128.6-83.5-154.5-184.6-10.5-41.1-15.3-82.2-16.2-136.8-1.3-83.3 8.5-166.4 31.2-264.9 3-12.9 5.3-23.6 5.1-23.8-.1-.2-10.4-3.4-22.7-7.3-66-20.4-119.5-41.4-174.4-68.6-143-70.5-237.2-159.9-265.5-251.8-6.2-20.2-7.5-29.8-7.5-55.1 0-20.1.3-24.5 2.3-34.4 7.3-36 26.1-74 53.8-108.6 10.9-13.7 43.1-46 58.4-58.7 82.7-68.5 201.8-126.9 342.3-167.8 10.1-3 14.7-4.8 14.7-5.7 0-.8-.9-5-2-9.3-1.1-4.4-4.2-17.9-6.9-30.2C506.5 640.7 500.8 510.5 522 411c11.9-56.3 32.3-103.1 59.7-137 8.2-10.1 25-26.3 35-33.7 100.8-74.8 272.3-35.4 461.8 106.1 31.5 23.5 65 51.2 94.8 78.5 8.2 7.5 17.4 15.9 20.5 18.7l5.7 5.1 14-13.2c56.4-53.4 119.5-103.3 174.9-138.4 29.1-18.4 49-29.7 78.1-44.1 61.7-30.5 115.4-47 167-51.3 9.6-.8 36.1-.6 45.6.3z"/><path d="M1636.5 297.7c-9.3.9-28.9 4.6-41 7.8-80.2 21-175.3 77-272.5 160.4-20.9 18-55.7 49.9-55.9 51.3-.1.5 5 6.3 11.2 13 50.4 54.9 108.7 127.4 162.9 202.8l15.4 21.5 13 1.3c90.6 8.7 193.1 24.8 271.9 42.6 8.3 1.9 15.1 3.3 15.3 3.1.5-.5 5.2-20.7 9.6-41.6 10.7-50.8 17.9-101.8 21.8-153.9 1.6-21.7 1.6-87.3 0-106-5.2-60.5-16.6-106.3-34.8-140.9-23.5-44.5-52.5-62.5-99.9-61.9-7.1.1-14.8.3-17 .5zM719.6 300.1c-24.9 3.4-46.5 14.4-60.3 30.7-53 62.5-68 199.1-40.2 366.7 5.4 32.4 18.1 93.4 21.3 102.2.4.8 2.8.6 9.3-.8 84.4-18.5 175.1-32.9 260.3-41.4 14.6-1.5 27.4-2.8 28.5-3 1.3-.3 6.7-6.8 14.5-17.7 51.7-71.8 115-150 168.4-207.8l10.6-11.5-6.8-6.4c-50.7-48.2-112.3-96.6-165.7-130.3C892.1 338.2 828 311 774 302c-14.3-2.4-43.5-3.4-54.4-1.9zM1182.6 604.3c-33 36.6-68 78.5-99.9 119.5-9.2 11.8-16.6 21.6-16.5 21.6.2.1 6.6-.2 14.3-.6 29.1-1.5 168-2.1 206.9-.9 20.9.7 39.4 1.4 41 1.7 1.8.4 2.7.2 2.5-.4-.7-1.9-38.3-50.2-55.5-71.2-24.3-29.7-51.8-61.5-74.9-86.8-1-1.1-4.4 2.1-17.9 17.1zM1117.5 839.6c-3.8.2-19.1.8-34 1.4-25.3 1-63.9 3.2-82 4.6l-8 .7-3.9 5.6c-7.3 10.4-43.1 65.4-54.8 84.1-47.8 76.6-92.2 156.3-131.9 236.2l-14.2 28.6 18 35.9c50.9 101.5 103.6 192.6 165.2 285.3 11.9 17.9 21.9 32.8 22.2 33.3.5.7 31.1 2.7 74.4 4.8 35.5 1.7 178.3 2.3 219 1 50-1.6 116-5.2 117-6.3.2-.2 7.1-10.9 15.5-23.8 66-101.6 124.7-203.8 174.7-303.9l13.6-27.4-7.7-15.6c-50.4-101.4-121.5-224.1-185.7-320.2l-11.7-17.6-7.9-.6c-10.5-.9-52.9-3.4-78.8-4.8-19.2-1-182.6-2.1-199-1.3zm113 160.8c30 5.4 55.2 15.4 79.1 31.5 60 40.3 94.4 110.5 88.6 180.9-4.1 50.1-23.9 93.2-58.6 127.7-38 37.8-87.8 58.5-140.7 58.5-100.9 0-184.7-72.5-199.4-172.5-3.4-22.8-1.8-53.6 4-76.5 20.3-81.3 88.3-140.8 172.5-151 11.1-1.3 43.9-.5 54.5 1.4zM829.5 864c-60 8.7-91.9 14.4-157.3 28.2-5.2 1.1-5.3 1.1-4.6 4.2 1.2 5.4 19.3 59.3 28.1 83.6 14.1 38.8 41.1 107 42.3 107 .3 0 3-4.8 6-10.7 27.4-53.4 73.8-134.3 111.6-194.6l14.3-22.7-3.7.1c-2 0-18.5 2.2-36.7 4.9zM1527 859.4c0 .2 7.1 11.8 15.9 25.8 35.9 57.6 78.7 131.8 108.1 187.5 4.1 7.9 7.8 14.3 8.1 14.3 1.3 0 24.2-56.8 39.5-97.6 9.7-26 32.9-94.3 32.3-94.8-.7-.7-42.9-9.6-66.1-14-32.7-6.3-66.6-11.9-103.4-17.1-31.1-4.5-34.4-4.9-34.4-4.1zM562.5 920.1c-45 13.5-79.5 25.3-115.5 39.8-149.2 59.6-251.6 140.2-273.3 214.9-1.9 6.6-2.2 10-2.1 24.2 0 15 .3 17.3 2.8 25.5 27.4 90.2 165.6 188.3 352.1 250 30.1 10 44.4 14 45.4 12.9.4-.5 3.4-9.2 6.6-19.4 21.9-70.5 60.2-169.7 95.8-248.3l8.6-18.9-8.1-17.6c-21-46.3-47.5-110.9-65.8-160.7-9.9-26.7-35-101.4-35-104 0-1.9.4-1.9-11.5 1.6zM1817.4 939.7c-23.2 72.4-55.8 156-91.6 235.1l-11 24.4 9 19.2c36.1 76.8 70.2 161.5 95.4 236.9l9.3 27.8 3.4-.6c4.6-.9 42.8-13.4 64.1-21 134.4-48.1 241.2-113.8 294.6-181 24.6-31 37.3-63.1 34.9-88-4.9-50.5-55.4-109.5-138.3-161.6-56.2-35.4-123.2-66.4-199.7-92.6-18.9-6.4-60.3-19.3-62.1-19.3-.8 0-3.9 8.1-8 20.7zM1653.1 1323.5c-24.6 48.2-73.9 134.5-112.1 196-7.5 12.1-13.9 22.5-14.3 23.1-.7 1.2-.8 1.2 38.8-4.1 43.6-5.9 100-15.6 138-23.6 7.7-1.7 17.4-3.7 21.6-4.6 4.2-.8 8.3-1.9 9-2.4 3.3-2-33.9-103.5-63.7-173.7-5.4-12.7-10.1-23.2-10.4-23.2-.3 0-3.4 5.6-6.9 12.5zM735.8 1318.7c-28.1 69.1-40.6 102.4-57.9 154.3-11.4 34.1-12.6 38.6-11.1 39.2 2.9 1.3 50.1 10.5 78.2 15.2 43.2 7.3 123.3 18.4 125.9 17.4.4-.2-5.9-10.9-14.1-23.8-35.2-55.7-74.2-123.1-105.8-182.8-6.8-12.7-12.6-23.2-13-23.2-.4 0-1.4 1.7-2.2 3.7zM1751.5 1602.7c-70.2 16.1-169 31.9-251 40.3-11.5 1.2-25.9 2.7-32 3.3l-10.9 1.2-17 24c-49.1 69.7-111.4 148.4-158 200l-13.5 15 5.8 5.5c59.7 55.9 100.9 89.1 154.1 124.5 102.9 68.4 197.8 98.9 259.5 83.4 17.2-4.3 34.4-15.1 46.4-29 63.8-73.9 77-246.8 33.6-442.1-3.1-13.6-5.9-25.5-6.3-26.5-.7-1.8-1.1-1.8-10.7.4zM635.6 1619.7c-27.7 116.2-37 226.2-26.5 311.3 5.2 41.7 13.9 74.2 27.5 102.9 8.1 16.9 15.7 28.3 25.9 39 16.2 16.9 31.3 24.6 56.3 28.7 13.2 2.2 44 1.4 60.2-1.4 47.8-8.5 96.7-27.1 152-58 62.7-34.9 138.8-92.2 195.2-147l8.8-8.4-11.6-12.6c-53.4-57.9-119-138.9-170.2-210.2l-11.1-15.6-15.3-1.3c-89.2-7.4-186.2-21.3-267.2-38.2-10.4-2.1-19.2-3.9-19.7-3.9-.4 0-2.3 6.6-4.3 14.7zM1069.5 1659.6c18.9 25.3 57.8 73.5 83.6 103.4 21.5 25.1 47 53.2 48.5 53.7 2 .7 44.7-48.8 75-86.7 27.2-34 56.8-73 56-73.8-.3-.2-19.3.1-42.3.8-41.3 1.3-190.6.8-213.8-.6l-9.9-.7 2.9 3.9z"/></svg>